<svg xmlns="http://www.w3.org/2000/svg" width="35" height="35" viewBox="0 0 35 35">
  <g id="Group_3206" data-name="Group 3206" transform="translate(-233 -583)">
    <g id="Ellipse_495" data-name="Ellipse 495" transform="translate(233 583)" fill="#f89900" stroke="#fff" stroke-width="2">
      <circle cx="17.5" cy="17.5" r="17.5" stroke="none"/>
      <circle cx="17.5" cy="17.5" r="16.5" fill="none"/>
    </g>
    <g id="Group_48" data-name="Group 48" transform="translate(244.705 594.292)">
      <path id="Path_24" data-name="Path 24" d="M16.889,18.53a1.647,1.647,0,0,0-2.131-2.114,13.272,13.272,0,0,0,.479,1.356,12.92,12.92,0,0,0,.831,1.659A1.625,1.625,0,0,0,16.889,18.53Zm-8.825.734-1,.427a.648.648,0,0,0-.393.639A4.3,4.3,0,0,0,7.873,23a.649.649,0,0,0,.8.112l1.1-.642A4,4,0,0,1,8.063,19.264Zm2.7,3.489-.22.011-.827.483a7.469,7.469,0,0,1,1.773,1.844.32.32,0,0,0,.322.142l.673-.113a.324.324,0,0,0,.233-.165.32.32,0,0,0,.013-.281A3.944,3.944,0,0,0,10.765,22.753Zm4.909-2.722c-.005-.007-.009-.015-.014-.022a13.616,13.616,0,0,1-1.022-1.987,13.836,13.836,0,0,1-.584-1.726c0-.007,0-.013-.005-.019a8.638,8.638,0,0,1-.331-2.546L8.7,18.911c0,.5.094,2.524,1.812,3.206l6.607-.334A7.808,7.808,0,0,1,15.674,20.031Zm2.366-1.2a.322.322,0,0,1,.28-.36h0c.032,0,.25-.026.574-.032a13.092,13.092,0,0,0-.632-1.92,12.4,12.4,0,0,0-1.219-2.27,7.336,7.336,0,0,1-.846.613.334.334,0,0,1-.165.045.329.329,0,0,1-.279-.159.324.324,0,0,1,.114-.444,6.566,6.566,0,0,0,.785-.581c-.616-.759-1.21-1.19-1.618-1.19a.482.482,0,0,0-.185.036c-.525.217-.652,1.511-.256,3.22a2.3,2.3,0,0,1,2.9,2.971,2.266,2.266,0,0,1-1.077,1.223c.863,1.268,1.755,1.946,2.235,1.745.464-.195.619-1.226.376-2.643-.37,0-.619.029-.629.029a.318.318,0,0,1-.359-.271Z" transform="translate(-6.674 -12.53)" fill="#fff"/>
    </g>
  </g>
</svg>
