<svg xmlns="http://www.w3.org/2000/svg" width="29.782" height="24.838" viewBox="0 0 29.782 24.838">
  <g id="Group_3189" data-name="Group 3189" transform="translate(-5 -7)">
    <path id="Path_163" data-name="Path 163" d="M32.189,18.79V14.415a2.471,2.471,0,0,0-2.472-2.472H8.708a1.236,1.236,0,0,1,0-2.472H28.482a1.236,1.236,0,0,0,0-2.472H7.472A2.471,2.471,0,0,0,5,9.472v17.3a2.471,2.471,0,0,0,2.472,2.472H21.734A7.415,7.415,0,1,0,32.189,18.79ZM27.246,29.913a12.575,12.575,0,1,0,.025-.049h-.025Z" transform="translate(0 0)" fill="#f89900"/>
    <path id="Path_164" data-name="Path 164" d="M2.472,7.415H4.944V3.708H7.415L3.708,0,0,3.708H2.472Z" transform="translate(30.954 28.01) rotate(180)" fill="#f89900"/>
  </g>
</svg>
