<svg xmlns="http://www.w3.org/2000/svg" width="29.104" height="27.041" viewBox="0 0 29.104 27.041">
  <g id="Group_3195" data-name="Group 3195" transform="translate(-306.982 -43)">
    <path id="Path_6954" data-name="Path 6954" d="M35.832,27.462a.744.744,0,0,0-.984-.033L28.02,33.071l-4.55-2.73a.744.744,0,0,0-.991,1.068l4.931,6.978a.746.746,0,0,0,.6.315h.007a.741.741,0,0,0,.6-.3l7.3-9.955A.746.746,0,0,0,35.832,27.462Z" transform="translate(300.021 31.339)" fill="#d60000"/>
    <path id="spinner-solid" d="M15.438,2.438A2.438,2.438,0,1,1,13,0,2.437,2.437,0,0,1,15.438,2.438ZM13,21.125a2.438,2.438,0,1,0,2.438,2.438A2.437,2.437,0,0,0,13,21.125ZM23.563,10.563A2.438,2.438,0,1,0,26,13,2.437,2.437,0,0,0,23.563,10.563ZM4.875,13a2.438,2.438,0,1,0-2.437,2.438A2.437,2.437,0,0,0,4.875,13Zm.656,5.031a2.438,2.438,0,1,0,2.438,2.438A2.437,2.437,0,0,0,5.531,18.031Zm14.938,0a2.438,2.438,0,1,0,2.438,2.438A2.437,2.437,0,0,0,20.469,18.031ZM5.531,3.094A2.437,2.437,0,1,0,7.969,5.531,2.437,2.437,0,0,0,5.531,3.094Z" transform="translate(332.982 43) rotate(90)" fill="#f89900"/>
  </g>
</svg>
