<svg xmlns="http://www.w3.org/2000/svg" width="25.181" height="24.109" viewBox="0 0 25.181 24.109">
  <path id="Icon_metro-bubbles" data-name="Icon metro-bubbles" d="M25.409,25.489a2.664,2.664,0,0,0,1.343,2.352v.36a4.682,4.682,0,0,1-.682.05,4.824,4.824,0,0,1-3.626-1.677,6.3,6.3,0,0,1-1.738.243,5.917,5.917,0,0,1-6.045-5.78,5.917,5.917,0,0,1,6.045-5.78,5.917,5.917,0,0,1,6.045,5.78,5.584,5.584,0,0,1-1.12,3.352,2.79,2.79,0,0,0-.223,1.1ZM13.319,5.143c5.845,0,10.6,4.078,10.744,9.156a7.776,7.776,0,0,0-8.69,1.37,7.416,7.416,0,0,0-1.724,8.255c-.11,0-.22,0-.33,0a12.353,12.353,0,0,1-1.676-.114C9.335,26.3,6.579,26.742,3.915,26.808V26.2A4.565,4.565,0,0,0,6.6,22.483a4.684,4.684,0,0,0-.045-.648,8.983,8.983,0,0,1-3.985-7.3c0-5.187,4.812-9.392,10.747-9.392Z" transform="translate(-2.071 -4.643)" fill="none" stroke="#f89900" stroke-width="1"/>
</svg>
