<svg xmlns="http://www.w3.org/2000/svg" width="35" height="35" viewBox="0 0 35 35">
  <g id="Group_3204" data-name="Group 3204" transform="translate(-45 -365)">
    <g id="Ellipse_1" data-name="Ellipse 1" transform="translate(45 365)" fill="#c32aa3" stroke="#fff" stroke-width="2">
      <circle cx="17.5" cy="17.5" r="17.5" stroke="none"/>
      <circle cx="17.5" cy="17.5" r="16.5" fill="none"/>
    </g>
    <g id="Icon_feather-instagram" data-name="Icon feather-instagram" transform="translate(52.2 372)">
      <path id="Path_27" data-name="Path 27" d="M6.75,3h7.5A3.75,3.75,0,0,1,18,6.75v7.5A3.75,3.75,0,0,1,14.25,18H6.75A3.75,3.75,0,0,1,3,14.25V6.75A3.75,3.75,0,0,1,6.75,3Z" fill="none" stroke="#fff" stroke-linecap="round" stroke-linejoin="round" stroke-width="1.5"/>
      <path id="Path_28" data-name="Path 28" d="M18.032,14.495A3,3,0,1,1,15.5,11.967a3,3,0,0,1,2.528,2.527Z" transform="translate(-4.532 -4.467)" fill="none" stroke="#fff" stroke-linecap="round" stroke-linejoin="round" stroke-width="1.5"/>
      <path id="Path_29" data-name="Path 29" d="M26.25,9.75h0" transform="translate(-11.625 -3.375)" fill="none" stroke="#fff" stroke-linecap="round" stroke-linejoin="round" stroke-width="1.5"/>
    </g>
  </g>
</svg>
