<svg xmlns="http://www.w3.org/2000/svg" width="15.881" height="12.298" viewBox="0 0 15.881 12.298">
  <path id="Icon_open-people" data-name="Icon open-people" d="M10.918,0A2.9,2.9,0,0,0,8.5,1.351a4.4,4.4,0,0,1,1.429,3.27,4.25,4.25,0,0,1-.179,1.244,2.832,2.832,0,0,0,1.171.292A3.028,3.028,0,0,0,13.9,3.086,3.028,3.028,0,0,0,10.918.015ZM4.963,1.535A3.028,3.028,0,0,0,1.985,4.606,3.028,3.028,0,0,0,4.963,7.677,3.028,3.028,0,0,0,7.941,4.606,3.028,3.028,0,0,0,4.963,1.535Zm9.43,4.852a5.089,5.089,0,0,1-3.355,1.29,3.051,3.051,0,0,1,.873,2.057v1.013h3.97V8.2a2.088,2.088,0,0,0-1.489-1.827ZM1.489,7.922A2.088,2.088,0,0,0,0,9.749V12.3H9.926V9.749A2.088,2.088,0,0,0,8.437,7.922a5.1,5.1,0,0,1-3.474,1.29A5.173,5.173,0,0,1,1.489,7.922Z" fill="#707070"/>
</svg>
