<svg xmlns="http://www.w3.org/2000/svg" width="17.45" height="12.464" viewBox="0 0 17.45 12.464">
  <g id="Icon_ionic-ios-card" data-name="Icon ionic-ios-card" transform="translate(-2.25 -6.75)">
    <path id="Path_2011" data-name="Path 2011" d="M19.7,8A1.25,1.25,0,0,0,18.454,6.75H3.5A1.25,1.25,0,0,0,2.25,8v1.87H19.7Z" fill="#707070"/>
    <path id="Path_2012" data-name="Path 2012" d="M2.25,21.982A1.25,1.25,0,0,0,3.5,23.229H18.454A1.25,1.25,0,0,0,19.7,21.982V15.75H2.25Zm5.531-1.87h6.388a.547.547,0,0,1,.545.545h0a.547.547,0,0,1-.545.545H7.781a.547.547,0,0,1-.545-.545h0A.547.547,0,0,1,7.781,20.113Zm-2.8,0h.467a.547.547,0,0,1,.545.545h0a.547.547,0,0,1-.545.545H4.977a.547.547,0,0,1-.545-.545h0A.547.547,0,0,1,4.977,20.113Z" transform="translate(0 -4.014)" fill="#707070"/>
  </g>
</svg>
