<svg xmlns="http://www.w3.org/2000/svg" width="15.185" height="12.333" viewBox="0 0 15.185 12.333">
  <path id="Icon_awesome-twitter" data-name="Icon awesome-twitter" d="M13.624,6.454c.01.135.01.27.01.4a8.794,8.794,0,0,1-8.855,8.855A8.8,8.8,0,0,1,0,14.317a6.438,6.438,0,0,0,.752.039,6.233,6.233,0,0,0,3.864-1.33,3.118,3.118,0,0,1-2.91-2.158,3.925,3.925,0,0,0,.588.048,3.292,3.292,0,0,0,.819-.106,3.113,3.113,0,0,1-2.5-3.054V7.717a3.134,3.134,0,0,0,1.407.4A3.117,3.117,0,0,1,1.06,3.949,8.846,8.846,0,0,0,7.477,7.206,3.513,3.513,0,0,1,7.4,6.493a3.115,3.115,0,0,1,5.386-2.129,6.127,6.127,0,0,0,1.975-.752,3.1,3.1,0,0,1-1.368,1.715,6.239,6.239,0,0,0,1.792-.482,6.69,6.69,0,0,1-1.561,1.609Z" transform="translate(0 -3.381)" fill="#4099ff"/>
</svg>
