<svg xmlns="http://www.w3.org/2000/svg" width="13.333" height="13.333" viewBox="0 0 13.333 13.333">
  <g id="Icon_feather-instagram" data-name="Icon feather-instagram" transform="translate(-2.5 -2.5)">
    <path id="Path_27" data-name="Path 27" d="M6.083,3H12.25a3.083,3.083,0,0,1,3.083,3.083V12.25a3.083,3.083,0,0,1-3.083,3.083H6.083A3.083,3.083,0,0,1,3,12.25V6.083A3.083,3.083,0,0,1,6.083,3Z" fill="none" stroke="#c32aa3" stroke-linecap="round" stroke-linejoin="round" stroke-width="1"/>
    <path id="Path_28" data-name="Path 28" d="M16.971,14.04a2.467,2.467,0,1,1-2.078-2.078,2.467,2.467,0,0,1,2.078,2.078Z" transform="translate(-5.338 -5.262)" fill="none" stroke="#c32aa3" stroke-linecap="round" stroke-linejoin="round" stroke-width="1"/>
    <path id="Path_29" data-name="Path 29" d="M26.25,9.75h0" transform="translate(-13.692 -3.975)" fill="none" stroke="#c32aa3" stroke-linecap="round" stroke-linejoin="round" stroke-width="1"/>
  </g>
</svg>
